<svg xmlns="http://www.w3.org/2000/svg" shape-rendering="geometricPrecision" text-rendering="geometricPrecision" image-rendering="optimizeQuality" fill-rule="evenodd" clip-rule="evenodd" viewBox="0 0 512 317.11"><path fill="#FED049" d="M486.24 245.71c14.87 4.62 25.76 18.55 25.76 34.88v.01c0 20.06-16.45 36.51-36.51 36.51H36.51C16.45 317.11 0 300.68 0 280.6v-.01c0-16.34 10.89-30.27 25.77-34.88 1.55-105.08 73.47-191.78 170.74-217.3l-.36-8.57C195.69 8.96 205.1 0 215.98 0h80.04c10.89 0 20.3 8.94 19.84 19.84l-.36 8.58c97.26 25.51 169.18 112.21 170.74 217.29z"/><path fill="#E8AE00" d="M314.67 48.28c22.75 6.37 44.18 16.1 63.41 28.6L346.75 242.2h-40.21l8.13-193.92zM205.47 242.2h-46.51L128.19 74.8c21.04-13.19 44.16-23.08 69.05-28.97l8.23 196.37z"/></svg>