<?xml version="1.0" encoding="iso-8859-1"?>
<!-- Uploaded to: SVG Repo, www.svgrepo.com, Generator: SVG Repo Mixer Tools -->
<svg height="800px" width="800px" version="1.1" id="Layer_1" xmlns="http://www.w3.org/2000/svg" xmlns:xlink="http://www.w3.org/1999/xlink" 
	 viewBox="0 0 392.555 392.555" xml:space="preserve">
<path style="fill:#56ACE0;" d="M21.855,151.531c0,71.564,58.182,129.745,129.745,129.745s129.745-58.182,129.745-129.745
	S223.099,21.786,151.6,21.786C80.036,21.786,21.855,79.968,21.855,151.531z M151.6,49.131c56.436,0,102.4,45.899,102.4,102.4
	s-45.899,102.4-102.4,102.4s-102.4-45.899-102.4-102.4S95.099,49.131,151.6,49.131z"/>
<path style="fill:#FFC10D;" d="M270.162,245.786c-0.065,0-0.065,0-0.129,0c-7.111,8.986-15.192,17.002-24.178,24.178
	c0,0.065,0,0.065,0,0.129c36.396,58.764,71.24,98.78,87.984,100.59c0,0,8.469,1.616,25.859-16.356
	c7.952-8.275,11.378-16.743,10.925-20.428C368.877,317.091,328.861,282.246,270.162,245.786z"/>
<g>
	<path style="fill:#194F82;" d="M151.6,253.931c56.436,0,102.4-45.899,102.4-102.4s-45.964-102.4-102.4-102.4
		c-56.501,0-102.4,45.899-102.4,102.4S95.099,253.931,151.6,253.931z M232.15,151.531c0,44.412-36.137,80.614-80.614,80.614
		s-80.614-36.137-80.614-80.614s36.137-80.614,80.614-80.614C195.948,70.917,232.15,107.119,232.15,151.531z"/>
	<path style="fill:#194F82;" d="M392.408,331.507c-3.426-32.323-66.521-76.735-109.964-103.693
		c13.123-22.432,20.622-48.42,20.622-76.283C303.131,68.008,235.123,0,151.6,0C68.012,0,0.004,68.008,0.004,151.531
		s68.008,151.531,151.531,151.531c27.798,0,53.85-7.564,76.283-20.622c26.958,43.442,71.37,106.473,103.693,109.899
		c0.905,0.065,19.006,3.879,44.412-23.467C381.483,362.796,394.024,346.958,392.408,331.507z M333.838,370.683
		c-16.679-1.745-51.523-41.826-87.984-100.525c0-0.065,0-0.065,0-0.129c8.986-7.111,17.002-15.192,24.178-24.178
		c0.065,0,0.065,0,0.129,0c58.699,36.396,98.715,71.24,100.525,87.984c0.388,3.685-2.909,12.154-10.925,20.428
		C342.372,372.299,333.838,370.683,333.838,370.683z M281.281,151.531c0,71.564-58.182,129.745-129.745,129.745
		S21.79,223.095,21.79,151.531S80.036,21.786,151.6,21.786C223.099,21.786,281.281,79.968,281.281,151.531z"/>
</g>
</svg>