<?xml version="1.0" encoding="iso-8859-1"?>
<!-- Uploaded to: SVG Repo, www.svgrepo.com, Generator: SVG Repo Mixer Tools -->
<svg version="1.1" id="Layer_1" xmlns="http://www.w3.org/2000/svg" xmlns:xlink="http://www.w3.org/1999/xlink" 
	 viewBox="0 0 511.98 511.98" xml:space="preserve">
<path style="fill:#ED5564;" d="M460.198,365.016l-1.812-0.531c-26.469-7.108-35.436-13.937-47.216-18.421
	c-41.781-15.922-52.655-27.405-55.437-32.827c-0.094-0.188-0.188-0.406-0.281-0.594l-0.344-48.553l-99.113-1.125l-99.137,1.125
	l-0.344,48.553c-0.094,0.188-0.172,0.406-0.266,0.594c-2.781,5.422-13.655,16.905-55.451,32.827
	c-11.78,4.484-20.733,11.312-47.201,18.421l-1.828,0.531c-24.093,7.953-40.295,30.312-40.295,55.53v91.434h244.521h244.514v-91.434
	C500.509,395.328,484.291,372.969,460.198,365.016z"/>
<path style="fill:#DBAFA5;" d="M183.357,307.441l-2.031,44.764c0,0,25.015,21.108,74.513,21.108
	c49.49,0,74.802-21.108,74.802-21.108l7.594-54.763L183.357,307.441z"/>
<g>
	<path style="fill:#F6BB42;" d="M156.514,312.643c-0.094,0.188-0.172,0.406-0.266,0.594c-1.625,3.156-5.984,8.375-17.593,15.312
		v87.436h42.67V266.77l-24.577,12.547L156.514,312.643z"/>
	<path style="fill:#F6BB42;" d="M373.326,328.549c-11.624-6.937-15.968-12.155-17.593-15.312c-0.094-0.188-0.188-0.406-0.281-0.594
		l-0.125-17.451l-24.687-7.984v128.776h42.686V328.549z"/>
</g>
<path style="fill:#656D78;" d="M387.482,22.999C373.826,7.093,352.296,0,317.672,0H194.295c-27.233,0-48.592,7.53-63.451,22.397
	c-16.155,16.147-24.327,40.74-24.343,73.091c0,0,0,42.365,0,104.059c0,35.936,9.624,69.591,27.093,94.771
	c21.343,30.747,52.998,46.997,91.544,46.997h61.692c37.654,0,69.372-18.358,91.746-53.075c19.812-30.773,26.906-65.99,26.906-88.692
	V95.488C405.482,59.396,400.076,37.717,387.482,22.999z"/>
<path style="opacity:0.1;fill:#FFFFFF;enable-background:new    ;" d="M387.482,22.999C373.826,7.093,352.296,0,317.672,0h-10.655
	c34.624,0,56.153,7.093,69.778,22.999c12.625,14.718,18,36.397,18,72.489v104.059c0,22.703-7.062,57.919-26.875,88.692
	c-22.405,34.717-54.123,53.075-91.745,53.075h10.655c37.654,0,69.372-18.358,91.746-53.075
	c19.812-30.773,26.906-65.99,26.906-88.692V95.488C405.482,59.396,400.076,37.717,387.482,22.999z"/>
<rect x="160.001" y="106.66" style="fill:#5D9CEC;" width="191.98" height="106.66"/>
<path style="fill:#434A54;" d="M341.984,85.324H169.998c-5.905,0-10.671-4.773-10.671-10.664s4.766-10.671,10.671-10.671h171.986
	c5.874,0,10.655,4.781,10.655,10.671S347.858,85.324,341.984,85.324z"/>
<polygon style="opacity:0.1;fill:#FFFFFF;enable-background:new    ;" points="245.324,106.659 223.997,213.32 266.651,213.32 
	287.986,106.659 "/>
<rect x="106.521" y="405.31" style="fill:#FFCE54;" width="298.65" height="106.67"/>
</svg>